<?xml version="1.0" encoding="iso-8859-1"?>
<!-- Generator: Adobe Illustrator 19.0.0, SVG Export Plug-In . SVG Version: 6.00 Build 0)  -->
<svg version="1.1" id="Capa_1" xmlns="http://www.w3.org/2000/svg" xmlns:xlink="http://www.w3.org/1999/xlink" x="0px" y="0px"
	 viewBox="0 0 512 512" style="enable-background:new 0 0 512 512;" xml:space="preserve">
<g>
	<g transform="translate(1 1)">
		<path style="fill:#F57C00;" d="M502.467,255c0,136.672-110.795,247.467-247.467,247.467c-4.267,0-8.533-0.085-12.715-0.341h-0.171
			C110.673,495.215,7.641,386.623,7.641,255S110.673,14.785,242.115,7.875h0.171c4.181-0.256,8.448-0.341,12.715-0.341
			C391.672,7.533,502.467,118.328,502.467,255z"/>
		<path style="fill:#FF9801;" d="M476.867,255c-0.003,131.662-103.098,240.27-234.581,247.125h-0.171
			C110.673,495.215,7.641,386.623,7.641,255S110.673,14.785,242.115,7.875h0.171C373.769,14.73,476.864,123.338,476.867,255z"/>
		<circle style="fill:#FF5722;" cx="255" cy="255" r="213.333"/>
		<circle style="fill:#FF9801;" cx="255" cy="255" r="170.667"/>
		<circle style="fill:#FF5722;" cx="255" cy="255" r="136.533"/>
		<circle style="fill:#FF9801;" cx="255" cy="255" r="102.4"/>
		<path style="fill:#00838F;" d="M476.867,324.547v15.445c0.01,20.689-9.196,40.308-25.115,53.522
			c-15.92,13.214-36.898,18.65-57.231,14.83c-32.877-6.198-56.703-34.896-56.747-68.352v-7.68
			c0.002-12.312-4.888-24.121-13.594-32.827s-20.515-13.596-32.827-13.594h-7.68L299.117,255H407.32
			C445.728,255.005,476.862,286.139,476.867,324.547z"/>
		<g>
			<path style="fill:#00BCD4;" d="M257.901,301.37v108.194c0,38.414-31.141,69.555-69.555,69.555h-15.462
				c-38.414,0-69.555-31.141-69.555-69.555c0-38.414,31.141-69.555,69.555-69.555h7.731c25.61,0,46.37-20.761,46.37-46.37"/>
			<path style="fill:#00BCD4;" d="M208.63,255H100.436c-38.414,0-69.555-31.141-69.555-69.555v-15.462
				c0-18.446,7.328-36.137,20.373-49.18c13.044-13.043,30.736-20.369,49.182-20.367c38.411,0,69.55,31.136,69.555,69.547v7.731
				c0,25.609,20.761,46.37,46.37,46.37"/>
		</g>
		<path style="fill:#00838F;" d="M407.32,100.461c-0.047,38.39-31.157,69.5-69.547,69.547h-7.765
			c-12.29-0.002-24.077,4.879-32.767,13.569c-8.69,8.69-13.571,20.477-13.569,32.767v7.765l-25.344-12.629l-5.547-2.816V100.461
			c-0.029-36.406,28.036-66.668,64.341-69.376h0.256c1.621-0.085,3.243-0.171,4.949-0.171h15.445
			c18.448-0.011,36.144,7.312,49.189,20.357C400.008,64.317,407.331,82.013,407.32,100.461z"/>
		<g>
			<path style="fill:#00BCD4;" d="M451.267,324.547v15.445c0.028,33.482-23.831,62.22-56.747,68.352
				c-32.877-6.198-56.703-34.896-56.747-68.352v-7.68c0.002-12.312-4.888-24.121-13.594-32.827s-20.515-13.596-32.827-13.594h-7.68
				L299.117,255h82.603C420.128,255.005,451.262,286.139,451.267,324.547z"/>
			<path style="fill:#00BCD4;" d="M381.72,100.461c-0.047,38.39-31.157,69.5-69.547,69.547h-7.765
				c-23.715-0.02-43.61,17.886-46.08,41.472l-5.547-2.816V100.461c-0.029-36.406,28.036-66.668,64.341-69.376h0.256
				C353.684,33.794,381.749,64.055,381.72,100.461z"/>
		</g>
		<path style="fill:#9E9E9E;" d="M306.2,255c0,28.277-22.923,51.2-51.2,51.2c-4.317-0.013-8.616-0.558-12.8-1.621
			c-22.605-5.815-38.406-26.195-38.406-49.536s15.801-43.721,38.406-49.536c4.172-1.134,8.477-1.708,12.8-1.707
			C283.277,203.8,306.2,226.723,306.2,255z"/>
		<path style="fill:#FFFFFF;" d="M280.6,255c-0.055,23.329-15.826,43.691-38.4,49.579c-22.605-5.815-38.406-26.195-38.406-49.536
			s15.801-43.721,38.406-49.536C264.777,211.336,280.563,231.683,280.6,255z"/>
	</g>
	<path d="M256,0C114.615,0,0,114.615,0,256s114.615,256,256,256s256-114.615,256-256C511.84,114.681,397.319,0.16,256,0z
		 M310.178,247.467c-1.738-11.178-6.881-21.548-14.729-29.696v-0.418c0.051-13.357,7.162-25.691,18.697-32.427
		c19.076,15.507,31.084,38.058,33.306,62.541H310.178z M122.803,351.642c-18.466-25.677-29.132-56.135-30.72-87.723
		c3.102,0.392,6.226,0.597,9.353,0.614h11.008c1.586,27.405,11.004,53.779,27.136,75.989
		C133.532,343.491,127.893,347.228,122.803,351.642z M156.527,334.49c-15.884-20.044-25.305-44.439-27.017-69.956h17.971
		c1.904,25.607,12.875,49.696,30.942,67.942h-4.54c-5.844,0.021-11.666,0.702-17.357,2.031V334.49z M198.963,328.064
		c-19.719-15.544-32.167-38.523-34.415-63.531h37.274c1.947,12.425,8.09,23.809,17.408,32.256
		C218.466,310.06,210.764,321.946,198.963,328.064z M178.057,156.092c19.953-15.612,44.133-24.875,69.41-26.59v17.98
		c-25.607,1.903-49.697,12.874-67.942,30.942v-7.433C179.514,165.989,179.023,161,178.057,156.092z M247.467,101.436v10.999
		c-26.971,1.577-52.952,10.721-74.965,26.385c-2.768-6.142-6.322-11.899-10.573-17.126c25.305-17.908,55.218-28.179,86.187-29.594
		C247.713,95.196,247.497,98.314,247.467,101.436z M247.467,164.582v37.06c-11.212,1.765-21.596,6.975-29.713,14.908h-0.393
		c-13.357-0.051-25.691-7.162-32.427-18.697c15.507-19.072,38.053-31.08,62.532-33.306V164.582z M218.163,256
		c0.104-20.872,17.089-37.718,37.961-37.649c20.872,0.069,37.746,17.027,37.712,37.899c-0.034,20.872-16.964,37.774-37.836,37.775
		C235.059,293.954,218.13,276.941,218.163,256z M333.943,355.917c-19.117,15.093-42.241,24.246-66.509,26.325v-17.869
		c24.562-2.52,47.519-13.384,65.041-30.78v7.433C332.487,346.025,332.978,351.012,333.943,355.917z M267.435,410.53v-11.17
		c25.941-2.037,50.846-11.066,72.064-26.129c2.774,6.141,6.331,11.898,10.581,17.126c-24.477,17.352-53.299,27.552-83.243,29.457
		c0.382-3.069,0.582-6.158,0.597-9.25V410.53z M267.435,347.153v-37.282c10.12-2.179,19.415-7.179,26.812-14.421h0.393
		c13.357,0.051,25.691,7.162,32.427,18.697c-14.866,18.299-36.234,30.139-59.631,33.041V347.153z M364.518,247.467
		c-1.903-25.605-12.871-49.694-30.933-67.942h7.424c5.002-0.01,9.991-0.501,14.899-1.468c15.608,19.956,24.87,44.134,26.59,69.41
		H364.518z M399.565,247.467c-1.578-26.971-10.722-52.952-26.385-74.965c6.142-2.768,11.899-6.322,17.126-10.573
		c17.906,25.307,28.177,55.218,29.594,86.187c-3.096-0.402-6.214-0.619-9.335-0.649H399.565z M341.009,162.458h-7.723
		c-26.035,0.043-48.472,18.335-53.76,43.827c-4.746-2.267-9.797-3.831-14.993-4.642V101.436
		c0.033-33.689,27.333-60.993,61.022-61.03h15.454c33.135,0.784,59.587,27.869,59.587,61.013s-26.453,60.23-59.587,61.013V162.458z
		 M252.22,74.863c-36.994,0.695-72.865,12.831-102.682,34.739c-5.795-4.56-12.208-8.275-19.046-11.034
		C166.073,69.977,210.355,54.4,256,54.417c2.398,0,4.787,0.145,7.177,0.239C258.547,60.814,254.855,67.623,252.22,74.863z
		 M162.458,170.991v7.723c0.035,26.087,18.391,48.561,43.947,53.803c-2.233,4.739-3.776,9.774-4.582,14.95H101.436
		c-33.686-0.038-60.984-27.336-61.022-61.022v-15.454c-0.369-22.041,11.179-42.568,30.208-53.696
		c19.029-11.128,42.581-11.128,61.61,0c19.029,11.128,30.577,31.655,30.208,53.696H162.458z M54.656,248.823
		c6.161,4.63,12.973,8.322,20.215,10.957c0.866,37.782,13.512,74.349,36.173,104.593c-4.408,5.979-7.934,12.56-10.47,19.541
		C70.696,347.99,54.363,302.725,54.417,256C54.417,253.594,54.562,251.213,54.656,248.823z M173.884,471.586
		c-33.299-0.557-60.001-27.71-60.001-61.013s26.702-60.456,60.001-61.013h7.731c25.58-0.047,47.747-17.735,53.47-42.667
		c4.878,2.035,10.026,3.346,15.283,3.891v99.78c-0.038,33.689-27.341,60.989-61.03,61.022H173.884z M262.716,437.018
		c35.978-1.229,70.746-13.299,99.746-34.628c5.797,4.56,12.209,8.277,19.046,11.042c-35.583,28.588-79.864,44.164-125.508,44.151
		c-1.442,0-2.91-0.094-4.361-0.128C256.333,451.235,260.067,444.346,262.716,437.018z M349.542,341.009v-7.731
		c-0.048-26.074-18.404-48.528-43.947-53.76c2.234-4.751,3.777-9.797,4.582-14.985h100.386
		c33.686,0.038,60.984,27.336,61.022,61.022v15.454c-0.557,33.299-27.71,60.001-61.013,60.001s-60.456-26.702-61.013-60.001H349.542
		z M457.387,263.177c-6.155-4.634-12.965-8.327-20.207-10.957c-0.69-36.993-12.83-72.864-34.748-102.673
		c4.566-5.796,8.284-12.212,11.042-19.055c28.572,35.589,44.134,79.869,44.109,125.508
		C457.583,258.398,457.438,260.779,457.387,263.177z M256,17.067c19.621-0.002,39.167,2.414,58.197,7.194
		c-12.68,1.876-24.699,6.859-34.987,14.507c-7.703-0.916-15.453-1.389-23.211-1.417c-53.906-0.047-105.909,19.93-145.92,56.055
		c-10.661-1.223-21.461-0.212-31.71,2.97C123.609,45.883,188.206,17.042,256,17.067z M17.067,256
		c-0.003-19.624,2.416-39.174,7.202-58.206c1.863,12.697,6.848,24.733,14.507,35.029c-0.918,7.692-1.394,15.43-1.425,23.177
		c-0.108,55.275,20.906,108.502,58.743,148.796c-0.145,1.911-0.29,3.823-0.29,5.769c0.018,9.114,1.645,18.152,4.804,26.701
		C47.59,391.97,17.062,325.732,17.067,256z M256,494.933c-19.225-0.006-38.379-2.335-57.045-6.938
		c13.139-1.62,25.644-6.576,36.326-14.396c7.074,0.683,13.918,1.084,20.719,1.084c53.908,0.043,105.91-19.936,145.92-56.064
		c2.875,0.33,5.767,0.501,8.661,0.512c7.811,0.005,15.579-1.169,23.04-3.482C388.381,466.132,323.787,494.965,256,494.933z
		 M487.731,314.197c-1.867-12.683-6.851-24.704-14.507-34.987c0.919-7.703,1.395-15.453,1.425-23.211
		c0.047-53.906-19.93-105.909-56.055-145.92c1.223-10.661,0.212-21.461-2.97-31.71c65.941,59.127,93.703,149.916,72.107,235.81
		V314.197z"/>
</g>
<g>
</g>
<g>
</g>
<g>
</g>
<g>
</g>
<g>
</g>
<g>
</g>
<g>
</g>
<g>
</g>
<g>
</g>
<g>
</g>
<g>
</g>
<g>
</g>
<g>
</g>
<g>
</g>
<g>
</g>
</svg>
